<?xml version="1.0" encoding="UTF-8"?>
<svg xmlns="http://www.w3.org/2000/svg" height="497" width="993">
<rect style="fill:#fff" width="993" height="497"/>
<rect style="fill:#221e1f" x="198" height="497" width="597"/>
<path style="fill:#fff" d="m 743.48438,75.742168 c -8.37579,2.255636 -36.14059,26.895472 -40.13086,51.603512 l -1.95118,0.0977 c 1.40227,-19.34986 2.70815,-33.100578 -1.98632,-34.044922 -9.24438,3.806315 -21.80847,27.621322 -23.22852,55.871092 -0.69125,0.4709 -1.35822,0.91441 -2.07422,1.4043 1.46386,-20.20106 0.9779,-35.49383 -4.17773,-36.42578 -6.84495,1.23666 -18.39802,25.85981 -24.07813,54.89453 -0.90904,0.55112 -1.79821,1.09517 -2.72656,1.65234 2.97327,-23.92572 5.06045,-42.99938 -0.0644,-43.92578 -6.93436,1.25282 -22.83676,22.12431 -29.01172,60.58789 -0.8078,0.44361 -1.62015,0.88719 -2.43555,1.33203 2.56348,-26.04282 1.58805,-49.49336 -3.5918,-50.42968 -6.9462,1.25495 -19.79107,25.47133 -26.34375,66.12304 -0.85495,0.42945 -1.70458,0.86362 -2.5625,1.29102 3.22756,-35.45889 2.99943,-59.66735 -2.20117,-60.60742 -6.99455,1.26369 -23.82915,23.1596 -28.0957,75.0332 -0.73399,0.33528 -1.46495,0.67142 -2.20117,1.00586 1.70873,-46.93215 -1.71634,-70.49346 -6.98047,-70.9043 -6.98935,1.26275 -21.89589,23.98115 -24.23633,84.59375 -0.83774,0.35376 -1.67653,0.70557 -2.51758,1.05664 -0.29845,-46.82956 -4.51401,-81.66686 -9.80859,-82.08008 -7.01846,1.26802 -21.96105,29.88098 -22.45703,94.99024 -0.76093,0.29919 -1.51831,0.59866 -2.2793,0.89844 -1.12553,-50.81599 -6.27335,-90.3361 -11.69141,-90.48633 -7.0169,1.26773 -21.0827,34.47161 -19.47265,104.1875 -0.86503,0.38749 -1.73283,0.77455 -2.59961,1.16211 -2.13236,-51.33833 -8.74775,-98.94932 -14.16797,-99.09961 -7.03014,1.27012 -21.01456,39.26759 -17.35352,113.52734 -0.88794,0.42997 -1.75028,0.86103 -2.62304,1.29102 -2.84537,-55.53798 -9.69728,-106.90435 -16.34375,-106.78907 -7.022,1.26866 -18.61342,42.79647 -14.09961,122.50391 -0.76165,0.40925 -1.48131,0.80668 -2.23242,1.21289 -1.73539,-56.33581 -9.88756,-116.85618 -19.01563,-115.20703 -9.14494,1.6522 -17.1473,51.0417 -11.30859,132.47656 -0.68402,0.41481 -1.32167,0.81118 -1.98633,1.21875 -2.89147,-45.0475 -12.64771,-125.75963 -22.75977,-123.86328 -10.14567,1.90264 -18.39664,58.37187 -6.36523,144.04688 -15.39667,8.59365 -36.64558,23.12595 -67.19536,49.05855 2.71479,2.90418 8.74536,11.10777 10.95507,14.95898 21.67057,-29.77738 26.91918,-34.37115 62.83204,-55.77929 0.0328,-0.0196 0.061,-0.039 0.0937,-0.0586 61.03248,43.67045 103.95802,61.43964 118.32617,53.85743 2.76494,-6.78204 -52.5358,-47.42178 -90.39649,-72.06446 0.71419,-0.41604 1.42744,-0.82681 2.14453,-1.2539 66.62418,43.50269 102.21532,54.6899 115.25,47.30664 0.1069,-5.24305 -42.03475,-38.376 -86.20703,-64.67774 0.71446,-0.38467 1.4256,-0.77477 2.14453,-1.15429 67.1355,42.24984 104.16757,48.8158 112.31836,42.57812 1.79522,-5.00723 -33.2279,-30.03366 -81.37695,-58.35742 0.69994,-0.35546 1.39782,-0.71411 2.10547,-1.06055 66.89983,39.78244 103.83644,43.06999 109.50586,38.11133 2.29797,-4.9126 -32.53533,-27.08683 -78.14258,-52.81836 0.73388,-0.34657 1.4837,-0.67512 2.23047,-1.00781 70.4665,38.98691 103.13358,39.55971 108.04883,34.84375 1.53924,-4.03199 -31.69788,-24.68445 -76.58399,-48.39844 0.78875,-0.32496 1.58233,-0.64159 2.38282,-0.94727 69.04296,36.18642 98.83021,35.82485 107.20507,33.55274 2.08059,-4.93404 -33.5338,-24.46302 -75.6289,-46.43359 0.81215,-0.40269 1.62397,-0.81078 2.43554,-1.20704 54.15851,26.41599 87.35568,34.63374 105.35352,28.91602 0.46879,-4.97784 -29.63783,-22.32464 -73.57422,-42.93555 0.81339,-0.32228 1.62057,-0.6407 2.42774,-0.95703 51.32694,23.9975 88.09562,28.77547 100.09375,21.66797 1.59237,-5.06186 -33.02263,-21.1421 -69.25391,-35.19531 0.79382,-0.42174 1.57608,-0.8302 2.36523,-1.2461 45.81357,18.2328 83.06363,19.79401 93.6211,10.94336 0.6795,-6.1296 -35.11065,-18.55709 -62.65039,-26.96679 0.81899,-0.42985 1.60601,-0.85971 2.41601,-1.28907 46.12697,14.35158 79.88713,7.58749 84.10547,-0.006 1.13066,-5.19207 -26.30723,-12.65348 -55.1582,-17.20899 0.8698,-0.59711 1.6363,-1.13324 2.49609,-1.72461 35.41151,6.68853 66.91734,-0.51661 74.46875,-11.77148 -0.23753,-4.87208 -25.80362,-6.42431 -46.54297,-7.61719 0.67532,-0.47334 1.46707,-1.024 2.12305,-1.48438 36.03124,-0.34518 59.37712,-13.06949 62.64258,-22.53125 -1.21883,-4.64039 -13.80646,-2.51645 -33.08008,0.63086 l -0.15039,-1.36523 c 25.69451,-7.96431 33.55586,-51.239862 33.00977,-59.107422 z"/>
</svg>
